<mxfile host="app.diagrams.net" modified="2023-03-27T05:03:25.547Z" agent="Mozilla/5.0 (Macintosh; Intel Mac OS X 10_15_7) AppleWebKit/537.36 (KHTML, like Gecko) Chrome/111.0.0.0 Safari/537.36" etag="CYvTf5e1TIGC_DbjbOD5" version="21.1.1" type="device">
  <diagram id="7ahb7ob-Zpf-hrlz6AXM" name="Page-1">
    <mxGraphModel dx="997" dy="1222" grid="0" gridSize="10" guides="1" tooltips="1" connect="1" arrows="1" fold="1" page="1" pageScale="1" pageWidth="850" pageHeight="1100" math="0" shadow="0">
      <root>
        <mxCell id="0" />
        <mxCell id="1" parent="0" />
        <mxCell id="RmkQPl8pfMx45eRrNKzg-3" value="" style="verticalLabelPosition=bottom;html=1;verticalAlign=top;align=center;strokeColor=none;fillColor=#00BEF2;shape=mxgraph.azure.virtual_machine;" parent="1" vertex="1">
          <mxGeometry x="165" y="340" width="112.5" height="90" as="geometry" />
        </mxCell>
        <mxCell id="RmkQPl8pfMx45eRrNKzg-4" value="Linode VPS" style="text;html=1;resizable=0;autosize=1;align=center;verticalAlign=middle;points=[];fillColor=none;strokeColor=none;rounded=0;" parent="1" vertex="1">
          <mxGeometry x="364.29" y="30" width="80" height="20" as="geometry" />
        </mxCell>
        <mxCell id="RmkQPl8pfMx45eRrNKzg-6" value="Homelab.local" style="text;html=1;resizable=0;autosize=1;align=center;verticalAlign=middle;points=[];fillColor=none;strokeColor=none;rounded=0;" parent="1" vertex="1">
          <mxGeometry x="175" y="440" width="90" height="20" as="geometry" />
        </mxCell>
        <mxCell id="RmkQPl8pfMx45eRrNKzg-7" value="Advertises Tailscale &lt;br&gt;Route 192.168.68.0/22" style="text;html=1;resizable=0;autosize=1;align=center;verticalAlign=middle;points=[];fillColor=none;strokeColor=none;rounded=0;" parent="1" vertex="1">
          <mxGeometry x="150" y="460" width="140" height="30" as="geometry" />
        </mxCell>
        <mxCell id="RmkQPl8pfMx45eRrNKzg-55" style="edgeStyle=orthogonalEdgeStyle;rounded=0;orthogonalLoop=1;jettySize=auto;html=1;entryX=0;entryY=0.5;entryDx=0;entryDy=0;entryPerimeter=0;" parent="1" source="RmkQPl8pfMx45eRrNKzg-3" target="RmkQPl8pfMx45eRrNKzg-10" edge="1">
          <mxGeometry relative="1" as="geometry" />
        </mxCell>
        <mxCell id="RmkQPl8pfMx45eRrNKzg-56" style="edgeStyle=orthogonalEdgeStyle;rounded=0;orthogonalLoop=1;jettySize=auto;html=1;exitX=1;exitY=0.5;exitDx=0;exitDy=0;exitPerimeter=0;entryX=0;entryY=0.5;entryDx=0;entryDy=0;entryPerimeter=0;" parent="1" source="RmkQPl8pfMx45eRrNKzg-3" target="RmkQPl8pfMx45eRrNKzg-13" edge="1">
          <mxGeometry relative="1" as="geometry" />
        </mxCell>
        <mxCell id="RmkQPl8pfMx45eRrNKzg-57" style="edgeStyle=orthogonalEdgeStyle;rounded=0;orthogonalLoop=1;jettySize=auto;html=1;exitX=1;exitY=0.5;exitDx=0;exitDy=0;exitPerimeter=0;entryX=0;entryY=0.5;entryDx=0;entryDy=0;entryPerimeter=0;" parent="1" source="RmkQPl8pfMx45eRrNKzg-3" target="RmkQPl8pfMx45eRrNKzg-17" edge="1">
          <mxGeometry relative="1" as="geometry" />
        </mxCell>
        <mxCell id="RmkQPl8pfMx45eRrNKzg-58" style="edgeStyle=orthogonalEdgeStyle;rounded=0;orthogonalLoop=1;jettySize=auto;html=1;exitX=1;exitY=0.5;exitDx=0;exitDy=0;exitPerimeter=0;entryX=0;entryY=0.5;entryDx=0;entryDy=0;entryPerimeter=0;" parent="1" source="RmkQPl8pfMx45eRrNKzg-3" target="RmkQPl8pfMx45eRrNKzg-20" edge="1">
          <mxGeometry relative="1" as="geometry" />
        </mxCell>
        <mxCell id="RmkQPl8pfMx45eRrNKzg-8" value="" style="verticalLabelPosition=bottom;html=1;verticalAlign=top;align=center;strokeColor=none;fillColor=#00BEF2;shape=mxgraph.azure.azure_load_balancer;" parent="1" vertex="1">
          <mxGeometry x="360" y="114" width="88.57" height="62" as="geometry" />
        </mxCell>
        <mxCell id="RmkQPl8pfMx45eRrNKzg-22" value="" style="verticalLabelPosition=bottom;html=1;verticalAlign=top;align=center;strokeColor=none;fillColor=#00BEF2;shape=mxgraph.azure.user;" parent="1" vertex="1">
          <mxGeometry x="196.25" y="131" width="47.5" height="50" as="geometry" />
        </mxCell>
        <mxCell id="RmkQPl8pfMx45eRrNKzg-23" value="User hits &lt;br&gt;http://clintsharp.com/" style="text;html=1;resizable=0;autosize=1;align=center;verticalAlign=middle;points=[];fillColor=none;strokeColor=none;rounded=0;" parent="1" vertex="1">
          <mxGeometry x="155" y="90" width="130" height="30" as="geometry" />
        </mxCell>
        <mxCell id="RmkQPl8pfMx45eRrNKzg-24" value="" style="endArrow=classic;html=1;rounded=0;exitX=0.84;exitY=0.28;exitDx=0;exitDy=0;exitPerimeter=0;entryX=0.05;entryY=0.5;entryDx=0;entryDy=0;entryPerimeter=0;" parent="1" source="RmkQPl8pfMx45eRrNKzg-22" target="RmkQPl8pfMx45eRrNKzg-8" edge="1">
          <mxGeometry width="50" height="50" relative="1" as="geometry">
            <mxPoint x="270" y="180" as="sourcePoint" />
            <mxPoint x="343.75" y="145" as="targetPoint" />
          </mxGeometry>
        </mxCell>
        <mxCell id="RmkQPl8pfMx45eRrNKzg-26" value="" style="curved=1;endArrow=classic;html=1;rounded=0;entryX=0.5;entryY=0;entryDx=0;entryDy=0;entryPerimeter=0;exitX=0.5;exitY=1;exitDx=0;exitDy=0;exitPerimeter=0;" parent="1" source="RmkQPl8pfMx45eRrNKzg-8" target="RmkQPl8pfMx45eRrNKzg-3" edge="1">
          <mxGeometry width="50" height="50" relative="1" as="geometry">
            <mxPoint x="400" y="210" as="sourcePoint" />
            <mxPoint x="540" y="220" as="targetPoint" />
            <Array as="points">
              <mxPoint x="450" y="260" />
              <mxPoint x="221" y="280" />
            </Array>
          </mxGeometry>
        </mxCell>
        <mxCell id="RmkQPl8pfMx45eRrNKzg-1" value="Internet" style="ellipse;shape=cloud;whiteSpace=wrap;html=1;" parent="1" vertex="1">
          <mxGeometry x="340" y="220" width="120" height="80" as="geometry" />
        </mxCell>
        <mxCell id="RmkQPl8pfMx45eRrNKzg-27" value="Nginx" style="text;html=1;resizable=0;autosize=1;align=center;verticalAlign=middle;points=[];fillColor=none;strokeColor=none;rounded=0;" parent="1" vertex="1">
          <mxGeometry x="375" y="45" width="50" height="30" as="geometry" />
        </mxCell>
        <mxCell id="RmkQPl8pfMx45eRrNKzg-28" value="Terminates TLS&lt;br&gt;Load Balances to 4 Nodes" style="text;html=1;resizable=0;autosize=1;align=center;verticalAlign=middle;points=[];fillColor=none;strokeColor=none;rounded=0;" parent="1" vertex="1">
          <mxGeometry x="320" y="65" width="160" height="40" as="geometry" />
        </mxCell>
        <mxCell id="tCiB9HLa08lVaoqakUc3-8" value="" style="group" vertex="1" connectable="0" parent="1">
          <mxGeometry x="510" y="338" width="195" height="40" as="geometry" />
        </mxCell>
        <mxCell id="RmkQPl8pfMx45eRrNKzg-12" value="" style="group" parent="tCiB9HLa08lVaoqakUc3-8" vertex="1" connectable="0">
          <mxGeometry y="6" width="90" height="30" as="geometry" />
        </mxCell>
        <mxCell id="RmkQPl8pfMx45eRrNKzg-13" value="" style="verticalLabelPosition=bottom;html=1;verticalAlign=top;align=center;strokeColor=none;fillColor=#00BEF2;shape=mxgraph.azure.server;" parent="RmkQPl8pfMx45eRrNKzg-12" vertex="1">
          <mxGeometry width="90" height="30" as="geometry" />
        </mxCell>
        <mxCell id="RmkQPl8pfMx45eRrNKzg-14" value="" style="shape=image;html=1;verticalAlign=top;verticalLabelPosition=bottom;labelBackgroundColor=#ffffff;imageAspect=0;aspect=fixed;image=https://cdn0.iconfinder.com/data/icons/font-awesome-brands-vol-2/512/raspberry-pi-128.png" parent="RmkQPl8pfMx45eRrNKzg-12" vertex="1">
          <mxGeometry x="12" y="5" width="20" height="20" as="geometry" />
        </mxCell>
        <mxCell id="tCiB9HLa08lVaoqakUc3-4" value="" style="group" vertex="1" connectable="0" parent="tCiB9HLa08lVaoqakUc3-8">
          <mxGeometry x="105" width="90" height="40" as="geometry" />
        </mxCell>
        <mxCell id="RmkQPl8pfMx45eRrNKzg-33" value="billy" style="text;html=1;resizable=0;autosize=1;align=center;verticalAlign=middle;points=[];fillColor=none;strokeColor=none;rounded=0;" parent="tCiB9HLa08lVaoqakUc3-4" vertex="1">
          <mxGeometry x="25" width="40" height="20" as="geometry" />
        </mxCell>
        <mxCell id="RmkQPl8pfMx45eRrNKzg-34" value="192.168.68.3" style="text;html=1;resizable=0;autosize=1;align=center;verticalAlign=middle;points=[];fillColor=none;strokeColor=none;rounded=0;" parent="tCiB9HLa08lVaoqakUc3-4" vertex="1">
          <mxGeometry y="20" width="90" height="20" as="geometry" />
        </mxCell>
        <mxCell id="tCiB9HLa08lVaoqakUc3-9" value="" style="group" vertex="1" connectable="0" parent="1">
          <mxGeometry x="510" y="387" width="195" height="40" as="geometry" />
        </mxCell>
        <mxCell id="RmkQPl8pfMx45eRrNKzg-16" value="" style="group" parent="tCiB9HLa08lVaoqakUc3-9" vertex="1" connectable="0">
          <mxGeometry y="4" width="90" height="30" as="geometry" />
        </mxCell>
        <mxCell id="RmkQPl8pfMx45eRrNKzg-17" value="" style="verticalLabelPosition=bottom;html=1;verticalAlign=top;align=center;strokeColor=none;fillColor=#00BEF2;shape=mxgraph.azure.server;" parent="RmkQPl8pfMx45eRrNKzg-16" vertex="1">
          <mxGeometry width="90" height="30" as="geometry" />
        </mxCell>
        <mxCell id="RmkQPl8pfMx45eRrNKzg-18" value="" style="shape=image;html=1;verticalAlign=top;verticalLabelPosition=bottom;labelBackgroundColor=#ffffff;imageAspect=0;aspect=fixed;image=https://cdn0.iconfinder.com/data/icons/font-awesome-brands-vol-2/512/raspberry-pi-128.png" parent="RmkQPl8pfMx45eRrNKzg-16" vertex="1">
          <mxGeometry x="12" y="5" width="20" height="20" as="geometry" />
        </mxCell>
        <mxCell id="tCiB9HLa08lVaoqakUc3-5" value="" style="group" vertex="1" connectable="0" parent="tCiB9HLa08lVaoqakUc3-9">
          <mxGeometry x="105" width="90" height="40" as="geometry" />
        </mxCell>
        <mxCell id="RmkQPl8pfMx45eRrNKzg-35" value="nanny" style="text;html=1;resizable=0;autosize=1;align=center;verticalAlign=middle;points=[];fillColor=none;strokeColor=none;rounded=0;" parent="tCiB9HLa08lVaoqakUc3-5" vertex="1">
          <mxGeometry x="20" width="50" height="20" as="geometry" />
        </mxCell>
        <mxCell id="RmkQPl8pfMx45eRrNKzg-36" value="192.168.68.4" style="text;html=1;resizable=0;autosize=1;align=center;verticalAlign=middle;points=[];fillColor=none;strokeColor=none;rounded=0;" parent="tCiB9HLa08lVaoqakUc3-5" vertex="1">
          <mxGeometry y="20" width="90" height="20" as="geometry" />
        </mxCell>
        <mxCell id="tCiB9HLa08lVaoqakUc3-10" value="" style="group" vertex="1" connectable="0" parent="1">
          <mxGeometry x="510" y="435" width="195" height="40" as="geometry" />
        </mxCell>
        <mxCell id="RmkQPl8pfMx45eRrNKzg-19" value="" style="group" parent="tCiB9HLa08lVaoqakUc3-10" vertex="1" connectable="0">
          <mxGeometry y="4" width="90" height="30" as="geometry" />
        </mxCell>
        <mxCell id="RmkQPl8pfMx45eRrNKzg-20" value="" style="verticalLabelPosition=bottom;html=1;verticalAlign=top;align=center;strokeColor=none;fillColor=#00BEF2;shape=mxgraph.azure.server;" parent="RmkQPl8pfMx45eRrNKzg-19" vertex="1">
          <mxGeometry width="90" height="30" as="geometry" />
        </mxCell>
        <mxCell id="RmkQPl8pfMx45eRrNKzg-21" value="" style="shape=image;html=1;verticalAlign=top;verticalLabelPosition=bottom;labelBackgroundColor=#ffffff;imageAspect=0;aspect=fixed;image=https://cdn0.iconfinder.com/data/icons/font-awesome-brands-vol-2/512/raspberry-pi-128.png" parent="RmkQPl8pfMx45eRrNKzg-19" vertex="1">
          <mxGeometry x="12" y="5" width="20" height="20" as="geometry" />
        </mxCell>
        <mxCell id="tCiB9HLa08lVaoqakUc3-6" value="" style="group" vertex="1" connectable="0" parent="tCiB9HLa08lVaoqakUc3-10">
          <mxGeometry x="105" width="90" height="40" as="geometry" />
        </mxCell>
        <mxCell id="RmkQPl8pfMx45eRrNKzg-37" value="ian" style="text;html=1;resizable=0;autosize=1;align=center;verticalAlign=middle;points=[];fillColor=none;strokeColor=none;rounded=0;" parent="tCiB9HLa08lVaoqakUc3-6" vertex="1">
          <mxGeometry x="30" width="30" height="20" as="geometry" />
        </mxCell>
        <mxCell id="RmkQPl8pfMx45eRrNKzg-38" value="192.168.68.5" style="text;html=1;resizable=0;autosize=1;align=center;verticalAlign=middle;points=[];fillColor=none;strokeColor=none;rounded=0;" parent="tCiB9HLa08lVaoqakUc3-6" vertex="1">
          <mxGeometry y="20" width="90" height="20" as="geometry" />
        </mxCell>
        <mxCell id="tCiB9HLa08lVaoqakUc3-13" value="" style="group" vertex="1" connectable="0" parent="1">
          <mxGeometry x="510" y="289.38" width="195" height="39.995000000000005" as="geometry" />
        </mxCell>
        <mxCell id="RmkQPl8pfMx45eRrNKzg-11" value="" style="group" parent="tCiB9HLa08lVaoqakUc3-13" vertex="1" connectable="0">
          <mxGeometry y="5.6200000000000045" width="90" height="30" as="geometry" />
        </mxCell>
        <mxCell id="RmkQPl8pfMx45eRrNKzg-10" value="" style="verticalLabelPosition=bottom;html=1;verticalAlign=top;align=center;strokeColor=none;fillColor=#00BEF2;shape=mxgraph.azure.server;" parent="RmkQPl8pfMx45eRrNKzg-11" vertex="1">
          <mxGeometry width="90" height="30" as="geometry" />
        </mxCell>
        <mxCell id="RmkQPl8pfMx45eRrNKzg-9" value="" style="shape=image;html=1;verticalAlign=top;verticalLabelPosition=bottom;labelBackgroundColor=#ffffff;imageAspect=0;aspect=fixed;image=https://cdn0.iconfinder.com/data/icons/font-awesome-brands-vol-2/512/raspberry-pi-128.png" parent="RmkQPl8pfMx45eRrNKzg-11" vertex="1">
          <mxGeometry x="12" y="5" width="20" height="20" as="geometry" />
        </mxCell>
        <mxCell id="tCiB9HLa08lVaoqakUc3-12" value="" style="group" vertex="1" connectable="0" parent="tCiB9HLa08lVaoqakUc3-13">
          <mxGeometry x="105" width="90" height="39.995000000000005" as="geometry" />
        </mxCell>
        <mxCell id="RmkQPl8pfMx45eRrNKzg-32" value="192.168.68.2" style="text;html=1;resizable=0;autosize=1;align=center;verticalAlign=middle;points=[];fillColor=none;strokeColor=none;rounded=0;" parent="tCiB9HLa08lVaoqakUc3-12" vertex="1">
          <mxGeometry y="19.995000000000005" width="90" height="20" as="geometry" />
        </mxCell>
        <mxCell id="RmkQPl8pfMx45eRrNKzg-31" value="pan" style="text;html=1;resizable=0;autosize=1;align=center;verticalAlign=middle;points=[];fillColor=none;strokeColor=none;rounded=0;" parent="tCiB9HLa08lVaoqakUc3-12" vertex="1">
          <mxGeometry x="23" width="40" height="20" as="geometry" />
        </mxCell>
      </root>
    </mxGraphModel>
  </diagram>
</mxfile>
